<svg width="70" height="78" viewBox="0 0 70 78" fill="none" xmlns="http://www.w3.org/2000/svg">
<path fill-rule="evenodd" clip-rule="evenodd" d="M63.4784 57.743L57.7422 63.2345C56.5008 64.4089 54.52 63.5289 54.52 61.8217V3.89098C54.52 1.74436 52.7144 0.00209647 50.5662 0.00209647H50.5973C48.4492 0.00209647 46.7369 1.74436 46.7369 3.89098V61.7629C46.7369 63.4778 44.6122 64.3542 43.3785 63.1642L37.689 57.7031C36.1402 56.2253 33.6613 56.2916 32.1981 57.8588L32.1786 57.8664C30.731 59.4141 30.8049 61.8447 32.346 63.2991L45.3359 75.655C48.3441 78.4978 53.053 78.4809 56.0495 75.6265L68.806 63.3807C70.3314 61.9263 70.4054 59.5204 68.9694 57.9765L68.9305 57.9366C67.4789 56.3734 65.0351 56.2886 63.4784 57.743ZM1.06955 19.8415L1.03062 19.8035C-0.405359 18.2596 -0.331444 15.8518 1.19405 14.3974L13.9505 2.15162C16.947 -0.706636 21.6558 -0.717574 24.6679 2.12124L37.6579 14.4791C39.199 15.9335 39.2769 18.3602 37.8292 19.908L37.8174 19.9194C36.3542 21.4866 33.8909 21.5529 32.3421 20.0713L26.6877 14.6158C25.4502 13.4258 23.3876 14.3003 23.3876 16.0153V73.8891C23.3876 76.0357 21.6481 77.778 19.4961 77.778C17.3479 77.778 15.6045 76.0357 15.6045 73.8891V15.9583C15.6045 14.2511 13.5614 13.3711 12.32 14.5455L6.52157 20.0371C4.96494 21.4915 2.5211 21.4048 1.06955 19.8415Z" fill="#2D1C6D"/>
</svg>
