<svg width="32" height="32" viewBox="0 0 32 32" fill="none" xmlns="http://www.w3.org/2000/svg">
<rect width="32" height="32" rx="16" fill="#2D1C6D"/>
<g clip-path="url(#clip0_104_28)">
<path d="M16.1494 10.1406L13.3594 7.36064C13.1594 7.17064 12.8494 7.17064 12.6494 7.36064L9.85943 10.1406C9.53943 10.4506 9.76943 10.9906 10.2094 10.9906L12.0094 10.9906L12.0094 17.0006C12.0094 17.5506 12.4594 18.0006 13.0094 18.0006C13.5594 18.0006 14.0094 17.5506 14.0094 17.0006L14.0094 10.9906L15.7994 10.9906C16.2494 10.9906 16.4694 10.4506 16.1494 10.1406ZM19.3594 24.6506L22.1494 21.8706C22.4694 21.5606 22.2394 21.0206 21.7994 21.0206L20.0094 21.0206L20.0094 15.0006C20.0094 14.4506 19.5594 14.0006 19.0094 14.0006C18.4594 14.0006 18.0094 14.4506 18.0094 15.0006L18.0094 21.0106L16.2194 21.0106C15.7694 21.0106 15.5494 21.5506 15.8694 21.8606L18.6594 24.6406C18.8494 24.8406 19.1694 24.8406 19.3594 24.6506Z" fill="white"/>
</g>
<defs>
<clipPath id="clip0_104_28">
<rect width="24" height="24" fill="white" transform="translate(4 4)"/>
</clipPath>
</defs>
</svg>
